<?xml version="1.0" encoding="utf-8"?>
<!-- Generator: Adobe Illustrator 16.0.0, SVG Export Plug-In . SVG Version: 6.00 Build 0)  -->
<!DOCTYPE svg PUBLIC "-//W3C//DTD SVG 1.1//EN" "http://www.w3.org/Graphics/SVG/1.1/DTD/svg11.dtd">
<svg version="1.1" id="Слой_1" xmlns="http://www.w3.org/2000/svg" xmlns:xlink="http://www.w3.org/1999/xlink" x="0px" y="0px"
	 width="26.084px" height="33.102px" viewBox="-238.092 528.983 26.084 33.102"
	 enable-background="new -238.092 528.983 26.084 33.102" xml:space="preserve">
<path d="M-224.917,528.983h-0.133l-13.042,1.391v23.965l13.042,7.746l13.042-7.746v-23.965L-224.917,528.983z
	 M-213.663,553.346l-11.387,6.752l-11.387-6.752v-9.799l11.32,6.752v1.193l-7.746-4.635v1.191l7.813,4.701v1.258l-7.813-4.635v1.191
	l7.813,4.635l7.878-4.701v-5.031l3.509-2.119V553.346L-213.663,553.346z M-213.729,542.09l-3.112,1.854l-1.456,0.861l-6.819-4.039
	v1.191l5.826,3.51h-0.066l-0.132,0.066l-0.861,0.463l-4.833-2.846v1.191l3.841,2.25l-0.928,0.596l-2.847-1.721v1.191l1.92,1.125
	l-1.92,1.127l-11.255-6.688l11.255-6.752L-213.729,542.09L-213.729,542.09z M-213.663,540.899l-11.453-6.752l-11.32,6.752v-9.004
	l11.387-1.191l11.387,1.191V540.899L-213.663,540.899z"/>
</svg>
