<?xml version="1.0" encoding="utf-8"?>
<!-- Generator: Adobe Illustrator 16.0.0, SVG Export Plug-In . SVG Version: 6.00 Build 0)  -->
<!DOCTYPE svg PUBLIC "-//W3C//DTD SVG 1.1//EN" "http://www.w3.org/Graphics/SVG/1.1/DTD/svg11.dtd">
<svg version="1.1" id="Layer_1" xmlns="http://www.w3.org/2000/svg" xmlns:xlink="http://www.w3.org/1999/xlink" x="0px" y="0px"
	 width="30.497px" height="30.33px" viewBox="0.751 0.835 30.497 30.33" enable-background="new 0.751 0.835 30.497 30.33"
	 xml:space="preserve">
<path fill="#63D1BB" d="M3.454,31.165h11.674V18.179H3.454V31.165z M29.766,9.113h-6.848c0.486-0.25,0.92-0.514,1.305-0.79
	c1.482-1.058,2.263-2.399,2.259-3.733c0.002-1.091-0.521-2.056-1.269-2.708c-0.752-0.658-1.746-1.046-2.815-1.047
	c-1.14-0.001-2.198,0.393-3.101,0.998c-1.361,0.914-2.434,2.289-3.196,3.798c-0.037,0.073-0.073,0.146-0.108,0.22
	c-0.279-0.583-0.604-1.145-0.972-1.674c-0.646-0.919-1.422-1.735-2.331-2.344c-0.906-0.604-1.963-0.998-3.103-0.998
	C8.455,0.838,7.417,1.313,6.642,2.043C5.869,2.774,5.325,3.804,5.322,4.971C5.32,5.653,5.52,6.367,5.929,7.014
	c0.515,0.813,1.33,1.521,2.459,2.101H2.236c-0.82,0-1.485,0.664-1.485,1.482v5.506h14.375V9.113h1.749v6.989h14.373v-5.506
	C31.252,9.775,30.586,9.113,29.766,9.113 M8.888,6.929c-0.58-0.364-0.933-0.732-1.138-1.06C7.544,5.539,7.476,5.251,7.474,4.97
	C7.47,4.5,7.705,3.997,8.12,3.606c0.407-0.389,0.959-0.622,1.458-0.622h0.011c0.64,0,1.276,0.216,1.911,0.638
	c0.951,0.626,1.845,1.728,2.47,2.975c0.319,0.632,0.569,1.299,0.737,1.949C11.827,8.245,9.963,7.609,8.888,6.929 M18.727,5.409
	c0.52-0.744,1.128-1.369,1.761-1.788c0.636-0.421,1.271-0.639,1.911-0.639h0.005c0.536,0,1.043,0.205,1.396,0.515
	c0.352,0.313,0.533,0.688,0.533,1.093c-0.002,0.479-0.252,1.175-1.369,1.99c-1.062,0.771-2.894,1.562-5.719,2.115
	C17.516,7.573,18.035,6.387,18.727,5.409 M16.877,31.165h11.676V18.179H16.877V31.165z"/>
</svg>
