<?xml version="1.0" encoding="utf-8"?>
<!-- Generator: Adobe Illustrator 16.0.0, SVG Export Plug-In . SVG Version: 6.00 Build 0)  -->
<!DOCTYPE svg PUBLIC "-//W3C//DTD SVG 1.1//EN" "http://www.w3.org/Graphics/SVG/1.1/DTD/svg11.dtd">
<svg version="1.1" id="Money" xmlns="http://www.w3.org/2000/svg" xmlns:xlink="http://www.w3.org/1999/xlink" x="0px" y="0px"
	 width="30.411px" height="17.845px" viewBox="-412.547 302.168 30.411 17.845"
	 enable-background="new -412.547 302.168 30.411 17.845" xml:space="preserve">
<g>
	<path d="M-384.687,302.168h-25.312c-1.408,0-2.549,1.142-2.549,2.549v12.747c0,1.407,1.142,2.549,2.549,2.549
		h25.312c1.407,0,2.55-1.142,2.55-2.549v-12.747C-382.136,303.31-383.279,302.168-384.687,302.168z M-410.573,318.458v-14.517h26.25
		v14.517H-410.573z"/>
	<path d="M-408.023,315.91h21.152v-9.419h-21.152V315.91z M-397.341,307.729c1.917,0,3.47,1.556,3.47,3.472
		s-1.553,3.47-3.47,3.47c-1.918,0-3.47-1.554-3.47-3.47C-400.812,309.283-399.258,307.729-397.341,307.729z"/>
</g>
</svg>
