<?xml version="1.0" encoding="utf-8"?>
<!-- Generator: Adobe Illustrator 16.0.0, SVG Export Plug-In . SVG Version: 6.00 Build 0)  -->
<!DOCTYPE svg PUBLIC "-//W3C//DTD SVG 1.1//EN" "http://www.w3.org/Graphics/SVG/1.1/DTD/svg11.dtd">
<svg version="1.1" id="Layer_1" xmlns="http://www.w3.org/2000/svg" xmlns:xlink="http://www.w3.org/1999/xlink" x="0px" y="0px"
	 width="27.304px" height="31.854px" viewBox="-418.165 300.15 27.304 31.854"
	 enable-background="new -418.165 300.15 27.304 31.854" xml:space="preserve">
<path fill="#63D1BB" d="M-404.513,332.004c7.539,0,13.652-6.113,13.652-13.654C-398.4,318.35-404.513,324.466-404.513,332.004z
	 M-414.215,314.181c0,2.094,1.697,3.793,3.792,3.793c0.796,0,1.54-0.252,2.146-0.667l-0.031,0.285c0,2.095,1.7,3.793,3.792,3.793
	c2.093,0,3.792-1.698,3.792-3.793l-0.031-0.285c0.614,0.423,1.351,0.667,2.147,0.667c2.093,0,3.792-1.699,3.792-3.793
	c0-1.509-0.887-2.806-2.17-3.413c1.275-0.607,2.17-1.902,2.17-3.414c0-2.091-1.699-3.792-3.792-3.792
	c-0.796,0-1.541,0.25-2.147,0.669l0.033-0.288c0-2.093-1.7-3.792-3.792-3.792c-2.092,0-3.792,1.701-3.792,3.792l0.031,0.288
	c-0.615-0.425-1.351-0.669-2.146-0.669c-2.093,0-3.792,1.701-3.792,3.792c0,1.512,0.888,2.807,2.169,3.414
	C-413.326,311.375-414.215,312.672-414.215,314.181z M-404.513,306.976c2.093,0,3.792,1.698,3.792,3.792s-1.7,3.79-3.792,3.79
	c-2.092,0-3.792-1.698-3.792-3.79C-408.307,308.674-406.607,306.976-404.513,306.976z M-418.165,318.35
	c0,7.541,6.112,13.654,13.651,13.654C-404.513,324.466-410.626,318.35-418.165,318.35z"/>
</svg>
