<?xml version="1.0" encoding="utf-8"?>
<!-- Generator: Adobe Illustrator 16.0.0, SVG Export Plug-In . SVG Version: 6.00 Build 0)  -->
<!DOCTYPE svg PUBLIC "-//W3C//DTD SVG 1.1//EN" "http://www.w3.org/Graphics/SVG/1.1/DTD/svg11.dtd">
<svg version="1.1" id="Layer_1" xmlns="http://www.w3.org/2000/svg" xmlns:xlink="http://www.w3.org/1999/xlink" x="0px" y="0px"
	 width="30.49px" height="13.054px" viewBox="-408.667 302.566 30.49 13.054"
	 enable-background="new -408.667 302.566 30.49 13.054" xml:space="preserve">
<g>
	<path d="M-385.972,305.781c-2.054-0.546-4.414-0.938-6.958-0.938c-1.627,0-3.072,0.137-4.34,0.351l-3.82-2.628
		l-7.576,0.003l3.272,3.482h4.756c-2.579,0.899-3.806,1.979-3.806,1.979l0.001,2.127c0,0,1.302,1.076,3.903,1.98l-4.854-0.003
		l-3.272,3.484l7.575,0.001l3.837-2.643c1.273,0.225,2.715,0.365,4.324,0.365c2.546,0,4.905-0.393,6.959-0.938
		c-0.662-0.999-1.078-2.107-1.08-3.309C-387.05,307.889-386.636,306.78-385.972,305.781z"/>
	<path d="M-384.045,306.364c-0.723,0.904-1.108,1.83-1.106,2.725c-0.004,0.9,0.381,1.823,1.108,2.73
		c3.603-1.218,5.866-2.727,5.866-2.727S-380.439,307.583-384.045,306.364z"/>
</g>
</svg>
