<?xml version="1.0" encoding="utf-8"?>
<!-- Generator: Adobe Illustrator 16.0.0, SVG Export Plug-In . SVG Version: 6.00 Build 0)  -->
<!DOCTYPE svg PUBLIC "-//W3C//DTD SVG 1.1//EN" "http://www.w3.org/Graphics/SVG/1.1/DTD/svg11.dtd">
<svg version="1.1" id="Layer_1" xmlns="http://www.w3.org/2000/svg" xmlns:xlink="http://www.w3.org/1999/xlink" x="0px" y="0px"
	 width="32px" height="22px" viewBox="-420.5 297.5 32 22" enable-background="new -420.5 297.5 32 22" xml:space="preserve">
<g transform="translate(0 192)">
	<path fill="#63D1BB" d="M-394.387,115.52l5.887-3.925v15.697l-5.887-3.925V115.52z M-396.349,115.52v7.848
		c0,2.168-1.757,3.925-3.924,3.925h-15.697c-2.167,0-3.924-1.757-3.924-3.925v-7.848c0-2.167,1.757-3.925,3.924-3.925h9.811
		c0-1.084,0.878-1.961,1.962-1.961v-1.963h-10.792c-0.542,0-0.981-0.438-0.981-0.981c0-0.541,0.439-0.98,0.981-0.98h11.772
		c0.542,0,0.981,0.439,0.981,0.98v2.944c1.084,0,1.961,0.877,1.961,1.961C-398.105,111.595-396.349,113.353-396.349,115.52z
		 M-408.121,115.52h-7.849v7.848h7.849V115.52z M-400.273,116.5c0-0.542-0.438-0.98-0.981-0.98h-3.924
		c-0.542,0-0.981,0.438-0.981,0.98c0,0.543,0.438,0.981,0.981,0.981h3.924C-400.711,117.481-400.273,117.043-400.273,116.5z"/>
</g>
</svg>
