<?xml version="1.0" encoding="utf-8"?>
<!-- Generator: Adobe Illustrator 16.0.0, SVG Export Plug-In . SVG Version: 6.00 Build 0)  -->
<!DOCTYPE svg PUBLIC "-//W3C//DTD SVG 1.1//EN" "http://www.w3.org/Graphics/SVG/1.1/DTD/svg11.dtd">
<svg version="1.1" id="Layer_1" xmlns="http://www.w3.org/2000/svg" xmlns:xlink="http://www.w3.org/1999/xlink" x="0px" y="0px"
	 width="59.999px" height="59.621px" viewBox="226.001 226.189 59.999 59.621"
	 enable-background="new 226.001 226.189 59.999 59.621" xml:space="preserve">
<path fill="#3BB09D" d="M226.001,269.871l27.438,15.935v-23.347l-27.438-15.939V269.871z M277.348,238.626v2.453
	c0,1.817-3.459,3.291-7.73,3.291c-4.266,0-7.727-1.474-7.727-3.291v-4.059h0.023c0.26,1.714,3.604,3.072,7.701,3.072
	c4.273,0,7.73-1.473,7.73-3.284c0-1.819-3.457-3.289-7.73-3.289c-0.338,0-0.674,0.01-1.002,0.03l-4.975-2.889v3.086
	c0,1.817-3.453,3.291-7.723,3.291c-2.684,0-5.045-0.584-6.434-1.468c-0.195-0.202-0.438-0.401-0.731-0.586
	c-0.362-0.381-0.565-0.797-0.565-1.235v-2.986l-4.807,2.792c-0.348-0.017-0.695-0.033-1.055-0.033c-4.266,0-7.727,1.47-7.727,3.289
	c0,1.812,3.461,3.285,7.727,3.285c4.1,0,7.447-1.358,7.705-3.073h0.022v4.059c0,1.817-3.454,3.291-7.728,3.291
	c-4.266,0-7.727-1.474-7.727-3.291v-2.42l-5.951,3.453l27.53,15.985l27.351-15.882L277.348,238.626z M263.703,248.792
	c0,1.817-3.46,3.287-7.727,3.287c-4.27,0-7.729-1.47-7.729-3.287v-4.059h0.024c0.26,1.715,3.603,3.076,7.705,3.076
	c4.101,0,7.442-1.361,7.705-3.076h0.021L263.703,248.792L263.703,248.792z M258.559,262.666v23.145L286,269.871v-23.144
	L258.559,262.666z M255.917,232.762c4.269,0,7.724-1.47,7.724-3.286c0-1.814-3.455-3.287-7.724-3.287
	c-4.271,0-7.729,1.473-7.729,3.287C248.188,231.292,251.646,232.762,255.917,232.762"/>
</svg>
