<?xml version="1.0" encoding="utf-8"?>
<!-- Generator: Adobe Illustrator 16.0.0, SVG Export Plug-In . SVG Version: 6.00 Build 0)  -->
<!DOCTYPE svg PUBLIC "-//W3C//DTD SVG 1.1//EN" "http://www.w3.org/Graphics/SVG/1.1/DTD/svg11.dtd">
<svg version="1.1" id="Layer_2" xmlns="http://www.w3.org/2000/svg" xmlns:xlink="http://www.w3.org/1999/xlink" x="0px" y="0px"
	 width="85.589px" height="39.018px" viewBox="0 -3.983 85.589 39.018" enable-background="new 0 -3.983 85.589 39.018"
	 xml:space="preserve">
<g>
	<path d="M4.18,26.293c-0.014-3.473-0.262-6.938-0.356-10.41c-0.008-0.34-0.015-0.681-0.02-1.021
		c0.049,0.121,0.097,0.242,0.146,0.363c0.54,1.352,1.103,2.664,1.839,3.919c0.731,1.245,1.099,2.581,1.521,3.94
		c-0.159,0.182-0.256,0.391-0.196,0.596c-0.033,0.15,0.059,0.244,0.212,0.307c0.537,0.459,1.55,0.23,2.113-0.008
		c0.242-0.104,0.474-0.223,0.696-0.355c0.29-0.182,0.745-0.572,0.613-0.977c-0.024-0.08-0.049-0.158-0.072-0.236
		c0.396-1.068,0.598-2.178,0.813-3.308c0.23-1.207,0.659-2.345,1.092-3.486c0.043,0.521,0.088,1.045,0.129,1.561
		c0.174,2.147,0.028,4.27,0.008,6.422c-0.008,0.713,0.047,1.375,0.185,2.074c0.06,0.287,0.31,1.521,0.235,1.58
		c-0.516,0.477-0.366,1.063,0.326,1.211c0.771,0.17,1.752-0.088,2.332-0.625c1.01-0.934,0.531-2.395,0.305-3.57
		c-0.385-1.975,0.076-4.182,0.018-6.19c-0.07-2.259-0.431-4.503-0.4-6.769c0.023-1.83,0.328-3.713-0.303-5.471
		c0.039-0.199,0.08-0.398,0.117-0.6c0.163-0.879-2.754-0.414-3.212,0.392c-0.29,0.235-0.438,0.519-0.313,0.806
		c0.031,0.071,0.058,0.146,0.084,0.219c-0.551,2.699-1.32,5.313-2.207,7.931c-0.339,1.001-0.748,1.978-1.095,2.978
		c-0.49-0.933-0.986-1.851-1.384-2.847c-1.155-2.892-2.199-5.813-3.61-8.596c0.16-1.289-2.698-1.153-3.261,0.021
		C-0.148,7.57-0.058,9.01,0.165,10.537c0.254,1.721,0.298,3.41,0.32,5.146c0.039,3.347,0.3,6.69,0.351,10.042
		c-0.298,0.33-0.389,0.74-0.078,1.156c0.136,0.184,0.306,0.322,0.482,0.461C1.996,27.975,4.185,27.456,4.18,26.293z"/>
	<path d="M22.375,7.921c-0.088-0.612-3.416,0.084-3.299,0.886c0.258,1.775,0.166,3.561,0.135,5.352
		c-0.03,1.722,0.395,3.281,0.615,4.97c0.227,1.733-0.07,3.503,0.127,5.235c0.09,0.813,0.631,2.313,0.073,3.018
		c-0.354,0.447,1.237,0.285,1.31,0.275c0.646-0.119,1.51-0.33,1.938-0.875c0.552-0.697,0.165-2.041,0.045-2.82
		c-0.267-1.732-0.097-3.537-0.161-5.286c-0.062-1.675-0.645-3.253-0.65-4.945C22.499,11.777,22.661,9.854,22.375,7.921z"/>
	<path d="M25.5,14.566c0.91,2.515,4.647,1.328,6.551,1.472c3.238,0.239,2.271,4.607,2.313,6.64c0.022,1.086,0.995,2.891,0.18,3.799
		c-0.502,0.557-1.67,0.59-2.353,0.646c-0.687,0.057-1.854,0.26-2.312-0.391c-0.836-1.193,0.076-3.199-0.103-4.568
		c-0.103-0.779-3.424-0.08-3.299,0.885c0.29,2.211-1.179,5.176,2.022,5.557c2.059,0.244,4.371-0.137,6.316-0.783
		c1.008-0.334,1.943-0.793,2.73-1.51c0.873-0.793,0.586-1.979,0.353-2.986c-0.569-2.459,0.616-5.29-0.987-7.455
		c-1.738-2.345-4.961-0.657-7.211-1.298c-1.162-0.33-1.176-1.91-1.171-2.859c0.003-1.202-0.098-2.302-0.231-3.49
		c-0.1-0.888-0.021-1.787,0.629-2.447c0.119-0.121,0.723-0.283,0.681-0.28c0.3-0.052,0.572-0.062,0.899-0.076
		c1.305-0.056,3.886,0.194,3.387,2.092c-0.227,0.851,3.027,0.363,3.266-0.53c1.021-3.873-6.138-3.131-8.158-2.592
		c-1.863,0.493-3.916,1.555-4.023,3.703c-0.052,1.027,0.229,2.006,0.273,3.021C25.306,12.27,25.088,13.438,25.5,14.566z"/>
	<path d="M39.956,16.438c-0.054,1.798-0.209,3.592-0.221,5.393c-0.006,0.92,0.146,1.842,0.278,2.75
		c0.122,0.84,0.407,1.963,0.151,2.795c-0.197,0.646,3,0.242,3.254-0.586c0.459-1.498-0.188-3.402-0.34-4.918
		c-0.147-1.451-0.033-2.946,0.071-4.42c1.708-0.11,3.418-0.25,5.119-0.012c0.076,1.164,0.164,2.321,0.272,3.481
		c0.088,0.977,0.15,1.947,0.164,2.93c0.015,0.854,0.119,2.098-0.186,2.912c-0.65,1.73,2.654,1.59,3.136,0.301
		c0.593-1.578,0.423-3.537,0.323-5.195c-0.13-2.059-0.404-4.106-0.471-6.167c-0.102-3.182-0.579-6.328-0.594-9.51
		c-0.006-1.66-3.338-1.099-3.33,0.289c0.012,3.039,0.416,6.037,0.57,9.067c0.006,0.062,0.008,0.121,0.01,0.181
		c-1.64-0.017-3.281,0.148-4.929,0.207c0.171-3.902-0.515-7.771-0.364-11.673c0.021-0.491-3.264-0.077-3.3,0.884
		C39.429,8.927,40.068,12.667,39.956,16.438z"/>
	<path d="M54.036,21.809c-0.255,0.258-0.16,0.412,0.045,0.506c0,1.473-0.051,2.947-0.179,4.424c-0.396,0.629,0.39,0.959,0.912,0.959
		c0.028,0,0.056,0,0.082,0c0.622,0,2.209-0.293,2.289-1.148c0.162-1.768,0.211-3.533,0.196-5.299
		c1.336-1.445,2.434-3.058,3.416-4.748c0.64,1.248,1.246,2.504,1.676,3.861c0.725,2.311,1.938,4.432,2.637,6.75
		c0.459,1.521,3.754,0.621,3.299-0.885c-0.701-2.318-1.857-4.461-2.639-6.75c-0.791-2.323-1.998-4.362-3.046-6.569
		c0.845-1.641,1.698-3.282,2.47-4.959c0.698-1.524,1.219-3.217,2.594-4.289c0.483-0.377,0.465-0.756-0.216-0.801
		c-0.737-0.055-1.737,0.158-2.334,0.625c-1.25,0.974-2.042,2.158-2.694,3.595c-0.783,1.726-1.598,3.421-2.455,5.116
		c-0.061,0.123-0.125,0.248-0.188,0.373c-0.412,0.265-0.66,0.643-0.539,1.064c-0.666,1.316-1.347,2.627-2.104,3.885
		c-0.252-4.66-0.803-9.316-0.969-13.982c-0.037-1.068-3.346-0.403-3.297,0.886c0.203,5.785,1.023,11.558,1.082,17.339
		C54.062,21.778,54.047,21.793,54.036,21.809z"/>
	<path d="M85.569,15.576c-0.177-0.701-1.154-0.717-1.914-0.648c-0.01-0.281-0.017-0.566-0.029-0.85
		c-0.105-2.24-0.139-4.529-0.328-6.764c-0.176-2.07-1.336-2.813-3.346-2.734c-2.035,0.076-4.404,0.443-6.303,1.183
		c-2.197,0.853-3.421,2.472-3.841,4.784c-0.464,2.539,0.2,5.238,0.313,7.789c0.129,2.952,0.055,5.909,0.053,8.86
		c0,0.482,3.298,0.025,3.298-0.885c0.004-2.338,0.036-4.676,0-7.014c-0.011-0.688-0.043-1.375-0.085-2.057
		c1.154-0.5,3.105,0.01,4.255,0.117c0.933,0.09,1.825-0.138,2.731-0.244c0.018,1.947,0.09,3.907,0.17,5.852
		c0.043,0.996,0.402,2.975-0.297,3.799c-0.367,0.436,1.25,0.287,1.311,0.279c0.668-0.123,1.482-0.338,1.939-0.869
		c0.799-0.941,0.383-3.191,0.338-4.316c-0.065-1.611-0.086-3.224-0.121-4.834C84.686,16.887,85.75,16.291,85.569,15.576z
		 M78.907,15.414c-1.928-0.047-3.828-0.35-5.65,0.035c-0.086-1.051-0.184-2.098-0.256-3.153c-0.133-1.962,0.1-4.702,1.929-5.896
		c0.491-0.318,1.413-0.265,1.983-0.369c0.819-0.146,1.647-0.328,2.385,0.16c1.018,0.676,0.769,3.08,0.766,4.102
		c-0.002,1.689,0.178,3.37,0.262,5.059C79.859,15.398,79.386,15.424,78.907,15.414z"/>
	<path d="M18.702,4.098c-0.049,0.18,0.012,0.355,0.118,0.497c0,0.039,0.002,0.075,0.002,0.114c0.005,0.094,0.009,0.188,0.013,0.281
		c0.063,0.195,0.183,0.344,0.362,0.447c0.325,0.195,0.737,0.231,1.108,0.195c0.439-0.041,0.882-0.191,1.244-0.439
		c0.072-0.062,0.144-0.121,0.217-0.183c0.438-0.282,0.818-0.696,0.611-1.146c-0.424-0.932-0.357-1.881-0.35-2.871
		c0.006-0.807-0.813-1.051-1.501-0.988c-0.608,0.055-1.827,0.488-1.831,1.279c-0.007,0.836-0.063,1.697,0.092,2.521
		C18.749,3.895,18.724,4.001,18.702,4.098z"/>
	<path d="M80.278,33.282c-1.558-0.586-3.283-0.615-4.852-0.787c-1.602-0.17-3.244-0.41-4.883-0.563
		c-1.638,0.053-3.311,0.027-4.973,0.129l-4.88,0.268c-6.487,0.289-12.999,0.254-19.517,0.107
		c-6.518-0.123-13.045-0.477-19.631-0.453c-3.287,0.008-6.564,0.1-9.861,0.25c-1.632,0.283-3.239,0.502-4.904,0.914
		c-1.615,0.398-3.145,0.906-4.794,1.047c1.623,0.363,3.341,0.293,4.962,0.297c1.579,0.01,3.243,0.143,4.872,0.23
		c3.229-0.172,6.487-0.244,9.733-0.25c6.486-0.023,13.015,0.33,19.564,0.451c6.549,0.146,13.114,0.188,19.684-0.109l4.906-0.27
		c1.604-0.07,3.198-0.127,4.83-0.066c1.627-0.148,3.252-0.33,4.918-0.531c1.664-0.238,3.219-0.627,4.854-0.51l0.074,0.006
		l0.006-0.055c0.021-0.178-0.04-0.322-0.04-0.479C80.314,33.028,80.309,33.165,80.278,33.282z"/>
</g>
</svg>
